<svg xmlns="http://www.w3.org/2000/svg" xmlns:xlink="http://www.w3.org/1999/xlink" width="500" zoomAndPan="magnify" viewBox="0 0 375 374.999991" height="500" preserveAspectRatio="xMidYMid meet" version="1.0"><defs><g/></defs><g fill="#004aad" fill-opacity="1"><g transform="translate(60.101491, 192.299185)"><g><path d="M 13.28125 -14.578125 C 12.953125 -9.476562 10.792969 -7.308594 6.550781 -7.582031 C 5.117188 -7.675781 3.625 -8.0625 2.082031 -8.738281 L 2.65625 0.171875 C 4.417969 0.863281 6.265625 1.273438 8.421875 1.414062 C 17.832031 2.023438 23 -3.125 23.675781 -13.539062 L 26.03125 -49.820312 L 15.617188 -50.496094 Z M 13.28125 -14.578125 "/></g></g></g><g fill="#004aad" fill-opacity="1"><g transform="translate(78.575222, 217.873404)"><g><path d="M 39.523438 -42.546875 L 39.523438 -51.402344 L 4.96875 -51.402344 L 4.96875 0 L 15.476562 0 L 15.476562 -21.308594 L 35.925781 -21.308594 L 35.925781 -30.09375 L 15.476562 -30.09375 L 15.476562 -42.546875 Z M 39.523438 -42.546875 "/></g></g></g><g fill="#ffffff" fill-opacity="1"><g transform="translate(74.052422, 184.726776)"><g><path d="M 21.84375 0 L 17.664062 -4.332031 C 18.714844 -6.167969 19.257812 -8.484375 19.257812 -11.285156 L 15.226562 -11.285156 C 15.226562 -9.777344 15.046875 -8.484375 14.714844 -7.433594 L 10.652344 -11.644531 C 12.609375 -12.699219 14.324219 -14.023438 14.324219 -16.761719 C 14.324219 -19.738281 12.335938 -21.84375 8.546875 -21.84375 C 4.664062 -21.84375 2.679688 -19.679688 2.679688 -16.878906 C 2.679688 -15.316406 3.339844 -13.960938 4.722656 -12.515625 L 4.8125 -12.425781 C 2.679688 -11.285156 0.722656 -9.71875 0.722656 -6.378906 C 0.722656 -2.285156 3.550781 0.359375 8.9375 0.359375 C 11.433594 0.359375 13.570312 -0.300781 15.226562 -1.535156 L 16.699219 0 Z M 7.792969 -14.625 C 7.011719 -15.464844 6.710938 -16.066406 6.710938 -16.820312 C 6.710938 -17.902344 7.371094 -18.535156 8.546875 -18.535156 C 9.6875 -18.535156 10.382812 -17.875 10.382812 -16.789062 C 10.382812 -15.527344 9.507812 -14.742188 8.304688 -14.082031 Z M 9.296875 -3.25 C 6.859375 -3.25 5.207031 -4.484375 5.207031 -6.589844 C 5.207031 -8.125 6.078125 -9.058594 7.28125 -9.839844 L 12.609375 -4.273438 C 11.675781 -3.582031 10.5625 -3.25 9.296875 -3.25 Z M 9.296875 -3.25 "/></g></g></g><g fill="#004aad" fill-opacity="1"><g transform="translate(117.152341, 196.522091)"><g><path d="M 11.398438 0.359375 C 13.617188 0.359375 15.746094 -0.0898438 17.785156 -0.929688 L 18.175781 -4.5 C 16.195312 -3.71875 14.367188 -3.328125 12.597656 -3.328125 C 8.097656 -3.328125 5.847656 -5.789062 5.847656 -10.707031 C 5.847656 -15.625 8.066406 -18.085938 12.535156 -18.085938 C 14.367188 -18.085938 16.136719 -17.695312 17.933594 -16.855469 L 17.933594 -20.425781 C 15.777344 -21.324219 13.648438 -21.773438 11.457031 -21.773438 C 4.980469 -21.773438 1.351562 -17.785156 1.351562 -10.707031 C 1.351562 -3.628906 4.980469 0.359375 11.398438 0.359375 Z M 11.398438 0.359375 "/></g></g></g><g fill="#004aad" fill-opacity="1"><g transform="translate(136.674759, 196.522091)"><g><path d="M 10.976562 0.359375 C 17.125 0.359375 20.605469 -3.390625 20.605469 -10.707031 C 20.605469 -18.027344 17.125 -21.773438 10.976562 -21.773438 C 4.828125 -21.773438 1.351562 -18.027344 1.351562 -10.707031 C 1.351562 -3.390625 4.828125 0.359375 10.976562 0.359375 Z M 10.976562 -3.328125 C 7.4375 -3.328125 5.847656 -5.609375 5.847656 -10.707031 C 5.847656 -15.804688 7.4375 -18.085938 10.976562 -18.085938 C 14.488281 -18.085938 16.105469 -15.835938 16.105469 -10.707031 C 16.105469 -5.578125 14.488281 -3.328125 10.976562 -3.328125 Z M 10.976562 -3.328125 "/></g></g></g><g fill="#004aad" fill-opacity="1"><g transform="translate(158.626231, 196.522091)"><g><path d="M 2.070312 0 L 6.449219 0 L 6.449219 -8.128906 C 6.449219 -10.828125 6.417969 -12.867188 6.117188 -16.105469 L 6.238281 -16.105469 L 14.066406 0 L 20.304688 0 L 20.304688 -21.414062 L 15.925781 -21.414062 L 15.925781 -13.285156 C 15.925781 -10.585938 15.957031 -8.546875 16.257812 -5.308594 L 16.136719 -5.308594 L 8.308594 -21.414062 L 2.070312 -21.414062 Z M 2.070312 0 "/></g></g></g><g fill="#004aad" fill-opacity="1"><g transform="translate(180.99754, 196.522091)"><g><path d="M 8.066406 0.359375 C 14.007812 0.359375 16.675781 -1.710938 16.675781 -6.386719 C 16.675781 -10.167969 14.964844 -12.027344 10.917969 -12.6875 L 7.796875 -13.167969 C 6.179688 -13.464844 5.488281 -14.125 5.488281 -15.507812 C 5.488281 -17.304688 6.6875 -18.085938 9.476562 -18.085938 C 11.21875 -18.085938 13.195312 -17.816406 15.535156 -17.246094 L 15.535156 -20.933594 C 13.375 -21.503906 11.246094 -21.773438 9.175781 -21.773438 C 3.628906 -21.773438 0.988281 -19.734375 0.988281 -15.445312 C 0.988281 -11.847656 2.789062 -9.898438 6.597656 -9.328125 L 10.015625 -8.789062 C 11.546875 -8.546875 12.148438 -7.859375 12.148438 -6.296875 C 12.148438 -4.140625 10.945312 -3.328125 7.769531 -3.328125 C 5.757812 -3.328125 3.808594 -3.660156 2.007812 -4.257812 L 1.257812 -0.660156 C 3.328125 0.03125 5.609375 0.359375 8.066406 0.359375 Z M 8.066406 0.359375 "/></g></g></g><g fill="#004aad" fill-opacity="1"><g transform="translate(198.630687, 196.522091)"><g><path d="M 6.417969 0 L 10.796875 0 L 10.796875 -17.726562 L 16.675781 -17.726562 L 16.675781 -21.414062 L 0.539062 -21.414062 L 0.539062 -17.726562 L 6.417969 -17.726562 Z M 6.417969 0 "/></g></g></g><g fill="#004aad" fill-opacity="1"><g transform="translate(215.843996, 196.522091)"><g><path d="M 17.097656 -4.917969 C 16.644531 -7.46875 15.597656 -8.816406 13.648438 -9.539062 L 13.648438 -9.597656 C 16.105469 -10.527344 17.394531 -12.417969 17.394531 -15.144531 C 17.394531 -19.105469 14.695312 -21.414062 10.078125 -21.414062 L 2.070312 -21.414062 L 2.070312 0 L 6.449219 0 L 6.449219 -8.15625 L 9.148438 -8.15625 C 11.277344 -8.15625 12.296875 -7.167969 12.746094 -4.617188 L 13.554688 0 L 18.027344 0 Z M 9.628906 -11.667969 L 6.449219 -11.667969 L 6.449219 -17.90625 L 9.628906 -17.90625 C 11.695312 -17.90625 12.898438 -16.765625 12.898438 -14.785156 C 12.898438 -12.808594 11.695312 -11.667969 9.628906 -11.667969 Z M 9.628906 -11.667969 "/></g></g></g><g fill="#004aad" fill-opacity="1"><g transform="translate(234.676679, 196.522091)"><g><path d="M 15.054688 -21.414062 L 15.054688 -7.859375 C 15.054688 -4.980469 13.4375 -3.328125 10.648438 -3.328125 C 7.886719 -3.328125 6.269531 -4.980469 6.269531 -7.859375 L 6.269531 -21.414062 L 1.890625 -21.414062 L 1.890625 -7.859375 C 1.890625 -2.789062 5.25 0.359375 10.648438 0.359375 C 16.046875 0.359375 19.433594 -2.789062 19.433594 -7.859375 L 19.433594 -21.414062 Z M 15.054688 -21.414062 "/></g></g></g><g fill="#004aad" fill-opacity="1"><g transform="translate(255.998394, 196.522091)"><g><path d="M 17.785156 -0.929688 L 18.175781 -4.5 C 16.195312 -3.71875 14.367188 -3.328125 12.597656 -3.328125 C 8.097656 -3.328125 5.847656 -5.789062 5.847656 -10.707031 C 5.847656 -15.625 8.066406 -18.085938 12.535156 -18.085938 C 14.367188 -18.085938 16.136719 -17.695312 17.933594 -16.855469 L 17.933594 -20.425781 C 15.777344 -21.324219 13.648438 -21.773438 11.457031 -21.773438 C 4.980469 -21.773438 1.351562 -17.785156 1.351562 -10.707031 C 1.351562 -4.347656 4.257812 -0.480469 9.507812 0.238281 L 7.859375 2.820312 L 7.859375 3.660156 L 10.109375 3.660156 C 10.378906 3.359375 10.675781 3.210938 11.128906 3.210938 C 11.90625 3.210938 12.328125 3.660156 12.328125 4.410156 C 12.328125 5.308594 11.726562 5.730469 10.527344 5.730469 C 9.628906 5.730469 8.667969 5.519531 7.679688 5.070312 L 7.886719 7.527344 C 8.847656 7.917969 9.898438 8.097656 10.976562 8.097656 C 13.738281 8.097656 15.355469 6.75 15.355469 4.4375 C 15.355469 2.488281 14.15625 1.257812 12.296875 1.257812 C 11.90625 1.257812 11.605469 1.320312 11.308594 1.441406 L 11.277344 1.441406 L 12.148438 0.328125 C 14.097656 0.238281 15.984375 -0.179688 17.785156 -0.929688 Z M 17.785156 -0.929688 "/></g></g></g><g fill="#004aad" fill-opacity="1"><g transform="translate(275.520811, 196.522091)"><g><path d="M 13.257812 -23.152344 C 15.355469 -23.152344 16.976562 -24.742188 16.976562 -27.171875 L 14.277344 -27.171875 C 14.277344 -26.304688 13.796875 -25.644531 13.046875 -25.644531 C 12.65625 -25.644531 12.238281 -25.824219 11.636719 -26.273438 C 10.675781 -27.023438 9.6875 -27.414062 8.667969 -27.414062 C 6.566406 -27.414062 4.949219 -25.824219 4.949219 -23.394531 L 7.648438 -23.394531 C 7.648438 -24.265625 8.128906 -24.921875 8.878906 -24.921875 C 9.269531 -24.921875 9.6875 -24.742188 10.289062 -24.292969 C 11.277344 -23.542969 12.238281 -23.152344 13.257812 -23.152344 Z M 10.976562 0.359375 C 17.125 0.359375 20.605469 -3.390625 20.605469 -10.707031 C 20.605469 -18.027344 17.125 -21.773438 10.976562 -21.773438 C 4.828125 -21.773438 1.351562 -18.027344 1.351562 -10.707031 C 1.351562 -3.390625 4.828125 0.359375 10.976562 0.359375 Z M 10.976562 -3.328125 C 7.4375 -3.328125 5.847656 -5.609375 5.847656 -10.707031 C 5.847656 -15.804688 7.4375 -18.085938 10.976562 -18.085938 C 14.488281 -18.085938 16.105469 -15.835938 16.105469 -10.707031 C 16.105469 -5.578125 14.488281 -3.328125 10.976562 -3.328125 Z M 10.976562 -3.328125 "/></g></g></g><g fill="#004aad" fill-opacity="1"><g transform="translate(297.472283, 196.522091)"><g><path d="M 6.449219 -3.6875 L 6.449219 -8.878906 L 15.085938 -8.878906 L 15.085938 -12.535156 L 6.449219 -12.535156 L 6.449219 -17.726562 L 16.585938 -17.726562 L 16.585938 -21.414062 L 2.070312 -21.414062 L 2.070312 0 L 16.707031 0 L 16.707031 -3.6875 Z M 6.449219 -3.6875 "/></g></g></g><g fill="#004aad" fill-opacity="1"><g transform="translate(315.345321, 196.522091)"><g><path d="M 8.066406 0.359375 C 14.007812 0.359375 16.675781 -1.710938 16.675781 -6.386719 C 16.675781 -10.167969 14.964844 -12.027344 10.917969 -12.6875 L 7.796875 -13.167969 C 6.179688 -13.464844 5.488281 -14.125 5.488281 -15.507812 C 5.488281 -17.304688 6.6875 -18.085938 9.476562 -18.085938 C 11.21875 -18.085938 13.195312 -17.816406 15.535156 -17.246094 L 15.535156 -20.933594 C 13.375 -21.503906 11.246094 -21.773438 9.175781 -21.773438 C 3.628906 -21.773438 0.988281 -19.734375 0.988281 -15.445312 C 0.988281 -11.847656 2.789062 -9.898438 6.597656 -9.328125 L 10.015625 -8.789062 C 11.546875 -8.546875 12.148438 -7.859375 12.148438 -6.296875 C 12.148438 -4.140625 10.945312 -3.328125 7.769531 -3.328125 C 5.757812 -3.328125 3.808594 -3.660156 2.007812 -4.257812 L 1.257812 -0.660156 C 3.328125 0.03125 5.609375 0.359375 8.066406 0.359375 Z M 8.066406 0.359375 "/></g></g></g></svg>